<?xml version="1.0" encoding="UTF-8"?>
<svg version="1.1" xmlns="http://www.w3.org/2000/svg" width="512" height="512">
    <path
        d="M0 0 C1.59622942 -0.00417672 3.19245588 -0.00965609 4.78867686 -0.01631981 C9.15957456 -0.0307488 13.5302833 -0.02653767 17.90119123 -0.019153 C22.62114186 -0.01441731 27.34105184 -0.02693474 32.06098938 -0.03717041 C41.30183216 -0.05435598 50.54260694 -0.0551989 59.78346156 -0.04995751 C67.29555512 -0.04591406 74.80762861 -0.04736144 82.31972122 -0.05270576 C83.92422538 -0.0538284 83.92422538 -0.0538284 85.56114376 -0.05497371 C87.73426592 -0.05650521 89.90738807 -0.05804355 92.08051021 -0.05958868 C112.45424241 -0.07331289 132.82793619 -0.06787662 153.2016675 -0.05640347 C171.83346483 -0.04647157 190.46516284 -0.05941117 209.09694485 -0.08333766 C228.23631326 -0.10773046 247.37563542 -0.11733605 266.51501906 -0.11068493 C277.25702466 -0.10719307 287.99895389 -0.10942262 298.74094772 -0.12693596 C307.88551804 -0.14166019 317.02995819 -0.14229045 326.17452596 -0.12486505 C330.83819643 -0.11635448 335.50163441 -0.11420694 340.16529274 -0.1295166 C344.43890469 -0.14337191 348.71208515 -0.13858978 352.98567219 -0.11927737 C354.52731018 -0.11551963 356.0689828 -0.11843281 357.61058991 -0.12888902 C370.29152024 -0.20874775 380.18452584 1.7130445 390.00674438 10.11424255 C399.05252142 19.08296868 403.37595203 29.34767499 403.43843004 42.07367706 C403.43694642 42.78881407 403.43546279 43.50395107 403.43393421 44.2407589 C403.43628644 45.01687196 403.43863867 45.79298503 403.44106218 46.59261668 C403.44772619 49.1967124 403.44729475 51.80075793 403.44688416 54.40486145 C403.45018437 56.28937278 403.45391027 58.1738834 403.45802563 60.05839312 C403.46803527 65.23991241 403.47176074 70.42142012 403.47441494 75.60294771 C403.47832088 81.18996452 403.48789879 86.77697219 403.49662781 92.36398315 C403.51638049 105.85514523 403.52645536 119.34630804 403.5353556 132.83748096 C403.53973907 139.18919196 403.5451056 145.54090212 403.55034447 151.89261246 C403.56735294 173.00246443 403.58187357 194.11231606 403.58909321 215.22217369 C403.58956796 216.58679502 403.59004385 217.95141636 403.59052087 219.31603769 C403.59075725 219.99275848 403.59099362 220.66947926 403.59123716 221.36670673 C403.59243835 224.79524732 403.5936538 228.22378791 403.59487915 231.65232849 C403.5951193 232.33272821 403.59535945 233.01312793 403.59560688 233.71414583 C403.60350306 255.78348192 403.62694372 277.85276433 403.65943509 299.92207697 C403.69372905 323.25836463 403.71344265 346.59461643 403.71673745 369.93093359 C403.71890454 382.65088802 403.72768273 395.37076347 403.75319862 408.09069443 C403.77487041 418.9192702 403.78297326 429.74774781 403.77323184 440.57634281 C403.76867741 446.10237947 403.77063997 451.62821343 403.78999329 457.15422249 C403.80755532 462.21234039 403.8066839 467.27010667 403.79109599 472.32822795 C403.78870937 474.15860031 403.79309782 475.98899658 403.80492464 477.81933229 C403.82000782 480.30762202 403.81039662 482.79466004 403.79469776 485.28291893 C403.80491997 485.9933736 403.81514218 486.70382828 403.82567415 487.43581188 C403.75178883 492.80225708 402.25122599 496.97531851 399.29971313 501.38768005 C393.41780037 506.30718976 386.54042071 507.41623608 379.23721313 509.13768005 C377.99004517 509.45350037 376.7428772 509.76932068 375.45791626 510.0947113 C359.9468764 513.82123258 348.11105832 512.01653559 332.94033813 507.70018005 C324.96497021 505.58357498 319.23868266 505.15801837 311.29971313 507.38768005 C309.55124398 507.81829746 307.8025463 508.2479881 306.05361938 508.67674255 C303.45891896 509.33955108 300.86791505 510.01114343 298.28213501 510.70799255 C285.19678293 514.00632586 274.08728506 511.74118446 261.28775024 508.2275238 C252.56391784 505.85995527 246.03150971 504.91652617 237.29971313 507.38768005 C235.55132771 507.8186373 233.80262939 508.24832714 232.05361938 508.67674255 C229.45891896 509.33955108 226.86791505 510.01114343 224.28213501 510.70799255 C211.19678293 514.00632586 200.08728506 511.74118446 187.28775024 508.2275238 C178.56391784 505.85995527 172.03150971 504.91652617 163.29971313 507.38768005 C161.55132771 507.8186373 159.80262939 508.24832714 158.05361938 508.67674255 C155.45891896 509.33955108 152.86791505 510.01114343 150.28213501 510.70799255 C136.53121233 514.17409159 125.10041684 511.45883769 111.69619751 507.61228943 C101.79588361 505.0364736 95.10024148 505.68883894 85.29971313 508.38768005 C83.71289417 508.77871383 82.1257288 509.16834886 80.53799438 509.5556488 C78.57578119 510.0600004 76.61801936 510.57357854 74.66494751 511.11228943 C63.24369466 513.99824503 52.65827239 511.96337001 41.42471313 509.13768005 C40.14596313 508.83732849 38.86721313 508.53697693 37.54971313 508.2275238 C29.8547274 506.33992292 22.69931866 504.56598381 18.29971313 497.38768005 C17.37113529 494.60194652 17.17599153 492.95288892 17.17945862 490.07867432 C17.17808395 489.1994783 17.17670929 488.32028229 17.17529297 487.41444397 C17.17888824 486.45275299 17.18248352 485.49106201 17.18618774 484.50022888 C17.18604172 483.48541946 17.18589569 482.47061005 17.18574524 481.42504883 C17.18644288 478.06491471 17.19422836 474.70483576 17.20205688 471.3447113 C17.20392159 469.0172936 17.20534525 466.68987551 17.2063446 464.36245728 C17.21016562 458.23203958 17.21999239 452.10164553 17.23104858 445.97123718 C17.24127161 439.7174766 17.24584414 433.46371221 17.25088501 427.20994568 C17.26161501 414.93584507 17.27920848 402.66176823 17.29971313 390.38768005 C11.02971313 390.38768005 4.75971313 390.38768005 -1.70028687 390.38768005 C-2.36028687 392.03768005 -3.02028687 393.68768005 -3.70028687 395.38768005 C-7.12142283 398.30570779 -10.0722657 398.81151063 -14.53622437 398.6025238 C-24.12136764 397.65093016 -32.41336639 394.29086218 -39.07528687 387.07518005 C-44.54094408 380.09214492 -46.81894394 372.35460681 -46.83450794 363.57693481 C-46.83896579 362.40805914 -46.84342363 361.23918346 -46.84801656 360.03488731 C-46.8478322 358.7548514 -46.84764784 357.47481548 -46.84745789 356.1559906 C-46.85075877 354.77913116 -46.85448481 353.40227267 -46.85859936 352.02541542 C-46.86860207 348.24228144 -46.87233337 344.45916333 -46.87498868 340.676018 C-46.8788969 336.59537602 -46.88847491 332.51474654 -46.89720154 328.43411255 C-46.91695192 318.57917265 -46.92703061 308.72423174 -46.93592933 298.869277 C-46.9403148 294.22569144 -46.94568096 289.58210701 -46.9509182 284.93852234 C-46.96792949 269.4973016 -46.98242278 254.05608157 -46.98966694 238.61485291 C-46.99157676 234.60895283 -46.9934971 230.60305276 -46.99545288 226.59715271 C-46.99593662 225.6015343 -46.99642036 224.6059159 -46.99691876 223.58012724 C-47.00521578 207.45844165 -47.03054761 191.33683034 -47.06303356 175.21517718 C-47.09613119 158.65462289 -47.11411817 142.09410632 -47.11731118 125.53351879 C-47.11947383 116.23895854 -47.12818658 106.9445066 -47.15377235 97.64997864 C-47.17551635 89.73286702 -47.18351163 81.81589001 -47.17380557 73.89875191 C-47.16927149 69.86267031 -47.17109475 65.82686623 -47.19056702 61.79082298 C-47.20827602 58.08810517 -47.20713913 54.38586574 -47.19166972 50.6831423 C-47.18819438 48.72554643 -47.20426204 46.76794508 -47.2212742 44.81042004 C-47.12568967 31.5576602 -43.81970052 20.21341663 -34.70028687 10.38768005 C-24.06830756 1.03975622 -13.68379454 -0.05832109 0 0 Z "
        fill="#F1E6D5" transform="translate(77.70028686523438,-0.3876800537109375)" />
    <path
        d="M0 0 C1.59622942 -0.00417672 3.19245588 -0.00965609 4.78867686 -0.01631981 C9.15957456 -0.0307488 13.5302833 -0.02653767 17.90119123 -0.019153 C22.62114186 -0.01441731 27.34105184 -0.02693474 32.06098938 -0.03717041 C41.30183216 -0.05435598 50.54260694 -0.0551989 59.78346156 -0.04995751 C67.29555512 -0.04591406 74.80762861 -0.04736144 82.31972122 -0.05270576 C83.92422538 -0.0538284 83.92422538 -0.0538284 85.56114376 -0.05497371 C87.73426592 -0.05650521 89.90738807 -0.05804355 92.08051021 -0.05958868 C112.45424241 -0.07331289 132.82793619 -0.06787662 153.2016675 -0.05640347 C171.83346483 -0.04647157 190.46516284 -0.05941117 209.09694485 -0.08333766 C228.23631326 -0.10773046 247.37563542 -0.11733605 266.51501906 -0.11068493 C277.25702466 -0.10719307 287.99895389 -0.10942262 298.74094772 -0.12693596 C307.88551804 -0.14166019 317.02995819 -0.14229045 326.17452596 -0.12486505 C330.83819643 -0.11635448 335.50163441 -0.11420694 340.16529274 -0.1295166 C344.43890469 -0.14337191 348.71208515 -0.13858978 352.98567219 -0.11927737 C354.52731018 -0.11551963 356.0689828 -0.11843281 357.61058991 -0.12888902 C370.29152024 -0.20874775 380.18452584 1.7130445 390.00674438 10.11424255 C399.05252142 19.08296868 403.37595203 29.34767499 403.43843004 42.07367706 C403.43694642 42.78881407 403.43546279 43.50395107 403.43393421 44.2407589 C403.43628644 45.01687196 403.43863867 45.79298503 403.44106218 46.59261668 C403.44772619 49.1967124 403.44729475 51.80075793 403.44688416 54.40486145 C403.45018437 56.28937278 403.45391027 58.1738834 403.45802563 60.05839312 C403.46803527 65.23991241 403.47176074 70.42142012 403.47441494 75.60294771 C403.47832088 81.18996452 403.48789879 86.77697219 403.49662781 92.36398315 C403.51638049 105.85514523 403.52645536 119.34630804 403.5353556 132.83748096 C403.53973907 139.18919196 403.5451056 145.54090212 403.55034447 151.89261246 C403.56735294 173.00246443 403.58187357 194.11231606 403.58909321 215.22217369 C403.58956796 216.58679502 403.59004385 217.95141636 403.59052087 219.31603769 C403.59075725 219.99275848 403.59099362 220.66947926 403.59123716 221.36670673 C403.59243835 224.79524732 403.5936538 228.22378791 403.59487915 231.65232849 C403.5951193 232.33272821 403.59535945 233.01312793 403.59560688 233.71414583 C403.60350306 255.78348192 403.62694372 277.85276433 403.65943509 299.92207697 C403.69372905 323.25836463 403.71344265 346.59461643 403.71673745 369.93093359 C403.71890454 382.65088802 403.72768273 395.37076347 403.75319862 408.09069443 C403.77487041 418.9192702 403.78297326 429.74774781 403.77323184 440.57634281 C403.76867741 446.10237947 403.77063997 451.62821343 403.78999329 457.15422249 C403.80755532 462.21234039 403.8066839 467.27010667 403.79109599 472.32822795 C403.78870937 474.15860031 403.79309782 475.98899658 403.80492464 477.81933229 C403.82000782 480.30762202 403.81039662 482.79466004 403.79469776 485.28291893 C403.80491997 485.9933736 403.81514218 486.70382828 403.82567415 487.43581188 C403.75178883 492.80225708 402.25122599 496.97531851 399.29971313 501.38768005 C393.41780037 506.30718976 386.54042071 507.41623608 379.23721313 509.13768005 C377.99004517 509.45350037 376.7428772 509.76932068 375.45791626 510.0947113 C359.9468764 513.82123258 348.11105832 512.01653559 332.94033813 507.70018005 C324.96497021 505.58357498 319.23868266 505.15801837 311.29971313 507.38768005 C309.55124398 507.81829746 307.8025463 508.2479881 306.05361938 508.67674255 C303.45891896 509.33955108 300.86791505 510.01114343 298.28213501 510.70799255 C285.19678293 514.00632586 274.08728506 511.74118446 261.28775024 508.2275238 C252.56391784 505.85995527 246.03150971 504.91652617 237.29971313 507.38768005 C235.55132771 507.8186373 233.80262939 508.24832714 232.05361938 508.67674255 C229.45891896 509.33955108 226.86791505 510.01114343 224.28213501 510.70799255 C211.19678293 514.00632586 200.08728506 511.74118446 187.28775024 508.2275238 C178.56391784 505.85995527 172.03150971 504.91652617 163.29971313 507.38768005 C161.55132771 507.8186373 159.80262939 508.24832714 158.05361938 508.67674255 C155.45891896 509.33955108 152.86791505 510.01114343 150.28213501 510.70799255 C136.53121233 514.17409159 125.10041684 511.45883769 111.69619751 507.61228943 C101.79588361 505.0364736 95.10024148 505.68883894 85.29971313 508.38768005 C83.71289417 508.77871383 82.1257288 509.16834886 80.53799438 509.5556488 C78.57578119 510.0600004 76.61801936 510.57357854 74.66494751 511.11228943 C63.24369466 513.99824503 52.65827239 511.96337001 41.42471313 509.13768005 C40.14596313 508.83732849 38.86721313 508.53697693 37.54971313 508.2275238 C29.8547274 506.33992292 22.69931866 504.56598381 18.29971313 497.38768005 C17.37113529 494.60194652 17.17599153 492.95288892 17.17945862 490.07867432 C17.17808395 489.1994783 17.17670929 488.32028229 17.17529297 487.41444397 C17.17888824 486.45275299 17.18248352 485.49106201 17.18618774 484.50022888 C17.18604172 483.48541946 17.18589569 482.47061005 17.18574524 481.42504883 C17.18644288 478.06491471 17.19422836 474.70483576 17.20205688 471.3447113 C17.20392159 469.0172936 17.20534525 466.68987551 17.2063446 464.36245728 C17.21016562 458.23203958 17.21999239 452.10164553 17.23104858 445.97123718 C17.24127161 439.7174766 17.24584414 433.46371221 17.25088501 427.20994568 C17.26161501 414.93584507 17.27920848 402.66176823 17.29971313 390.38768005 C11.02971313 390.38768005 4.75971313 390.38768005 -1.70028687 390.38768005 C-2.36028687 392.03768005 -3.02028687 393.68768005 -3.70028687 395.38768005 C-7.12142283 398.30570779 -10.0722657 398.81151063 -14.53622437 398.6025238 C-24.12136764 397.65093016 -32.41336639 394.29086218 -39.07528687 387.07518005 C-44.54094408 380.09214492 -46.81894394 372.35460681 -46.83450794 363.57693481 C-46.83896579 362.40805914 -46.84342363 361.23918346 -46.84801656 360.03488731 C-46.8478322 358.7548514 -46.84764784 357.47481548 -46.84745789 356.1559906 C-46.85075877 354.77913116 -46.85448481 353.40227267 -46.85859936 352.02541542 C-46.86860207 348.24228144 -46.87233337 344.45916333 -46.87498868 340.676018 C-46.8788969 336.59537602 -46.88847491 332.51474654 -46.89720154 328.43411255 C-46.91695192 318.57917265 -46.92703061 308.72423174 -46.93592933 298.869277 C-46.9403148 294.22569144 -46.94568096 289.58210701 -46.9509182 284.93852234 C-46.96792949 269.4973016 -46.98242278 254.05608157 -46.98966694 238.61485291 C-46.99157676 234.60895283 -46.9934971 230.60305276 -46.99545288 226.59715271 C-46.99593662 225.6015343 -46.99642036 224.6059159 -46.99691876 223.58012724 C-47.00521578 207.45844165 -47.03054761 191.33683034 -47.06303356 175.21517718 C-47.09613119 158.65462289 -47.11411817 142.09410632 -47.11731118 125.53351879 C-47.11947383 116.23895854 -47.12818658 106.9445066 -47.15377235 97.64997864 C-47.17551635 89.73286702 -47.18351163 81.81589001 -47.17380557 73.89875191 C-47.16927149 69.86267031 -47.17109475 65.82686623 -47.19056702 61.79082298 C-47.20827602 58.08810517 -47.20713913 54.38586574 -47.19166972 50.6831423 C-47.18819438 48.72554643 -47.20426204 46.76794508 -47.2212742 44.81042004 C-47.12568967 31.5576602 -43.81970052 20.21341663 -34.70028687 10.38768005 C-24.06830756 1.03975622 -13.68379454 -0.05832109 0 0 Z M24.29971313 15.38768005 C24.72123657 16.21912537 25.14276001 17.05057068 25.57705688 17.9072113 C26.12490845 18.99389099 26.67276001 20.08057068 27.23721313 21.20018005 C27.78248657 22.27912537 28.32776001 23.35807068 28.88955688 24.4697113 C31.13694168 29.12011696 31.44547596 32.87357473 31.43837833 37.94081402 C31.44122055 38.72092745 31.44406277 39.50104087 31.44699112 40.3047941 C31.45536777 42.94048073 31.45660865 45.57612357 31.45793152 48.21182251 C31.46249485 50.11182091 31.46749453 52.01181831 31.47289509 53.91181451 C31.48651169 59.14975821 31.49390472 64.3876954 31.50032175 69.62565219 C31.50831025 75.26778675 31.52201334 80.90990769 31.53503418 86.55203247 C31.55681896 96.33301557 31.57495612 106.11400003 31.59063911 115.89499474 C31.61331954 130.03679735 31.64146488 144.17858491 31.67095839 158.32037476 C31.71865675 181.26264402 31.76192335 204.20491863 31.80239868 227.14720154 C31.84173499 249.43789652 31.88315422 271.72858604 31.92739868 294.01927185 C31.92876121 294.70614299 31.93012374 295.39301413 31.93152756 296.10069955 C31.94521271 302.99842473 31.95894027 309.89614983 31.9726989 316.79387487 C32.08811521 374.65846506 32.19637361 432.52306709 32.29971313 490.38768005 C33.30929077 490.65540222 34.31886841 490.92312439 35.35903931 491.19895935 C36.70776222 491.55740637 38.05647592 491.91588803 39.40518188 492.2743988 C40.06771973 492.44999329 40.73025757 492.62558777 41.41287231 492.8065033 C46.37105659 494.12554158 51.30366302 495.52038278 56.22549438 496.9697113 C65.9407542 498.29059161 75.64189207 494.95233662 84.93447876 492.47166443 C98.90045274 488.92215843 109.30466279 491.08660942 123.00479126 494.98728943 C136.19085266 498.54817344 145.97272769 495.93182644 158.93447876 492.47166443 C172.90045274 488.92215843 183.30466279 491.08660942 197.00479126 494.98728943 C210.19085266 498.54817344 219.97272769 495.93182644 232.93447876 492.47166443 C246.90045274 488.92215843 257.30466279 491.08660942 271.00479126 494.98728943 C284.19085266 498.54817344 293.97272769 495.93182644 306.93447876 492.47166443 C320.90045274 488.92215843 331.30466279 491.08660942 345.00479126 494.98728943 C352.20908134 496.93280148 357.96479253 497.89471433 365.29971313 496.38768005 C366.1984314 496.20664734 367.09714966 496.02561462 368.02310181 495.83909607 C370.81622279 495.23545987 373.58806422 494.57289679 376.36221313 493.88768005 C377.3103186 493.66209412 378.25842407 493.43650818 379.23526001 493.2040863 C383.60531228 492.46961333 383.60531228 492.46961333 387.29971313 490.38768005 C387.40305413 487.97291696 387.44071214 485.58653471 387.43672752 483.17104435 C387.43937935 482.40298807 387.44203118 481.63493179 387.44476336 480.84360108 C387.45250117 478.23678651 387.45301724 475.63001868 387.45361328 473.02319336 C387.45762499 471.14854733 387.46206272 469.27390217 387.46689284 467.39925808 C387.47889729 462.22170654 387.48451575 457.04416433 387.48907399 451.86660159 C387.49501567 446.29240911 387.50662927 440.71822788 387.5173645 435.14404297 C387.54192459 421.66709895 387.55652254 408.19015119 387.56942457 394.71319166 C387.57313439 390.90825058 387.5771078 387.10330988 387.58117723 383.29836917 C387.60641563 359.68512288 387.62849148 336.07187578 387.64090538 312.45861912 C387.64382679 306.9848588 387.64679428 301.51109852 387.64981079 296.03733826 C387.6501817 295.35728047 387.65055261 294.67722267 387.65093476 293.97655707 C387.66308545 271.93627366 387.69401933 249.89607019 387.73573232 227.85582431 C387.77974208 204.5595215 387.80544073 181.26327295 387.81082594 157.96692222 C387.81424201 145.26581184 387.82602 132.56482748 387.85892868 119.86375618 C387.88691175 109.04571658 387.89793622 98.22782882 387.88673322 87.40975583 C387.88154181 81.88953732 387.88446495 76.36963686 387.90919876 70.84946442 C387.93166098 65.79406324 387.93097461 60.73920912 387.91199489 55.68379854 C387.90919062 53.85660262 387.91481707 52.02936984 387.92980783 50.20223326 C388.14184225 36.5098754 388.14184225 36.5098754 382.29971313 24.38768005 C379.78660776 21.99988331 377.33177568 20.07157638 374.29971313 18.38768005 C372.92626063 17.61754845 372.92626063 17.61754845 371.52506161 16.83185863 C365.7787069 14.42043744 359.55786127 14.98621267 353.43632507 15.0269165 C352.0154754 15.02560741 350.59462644 15.02297907 349.17378134 15.01914901 C345.2787637 15.01245251 341.38399433 15.02442509 337.48900831 15.03948319 C333.28527496 15.05245139 329.08155535 15.04805354 324.87780762 15.04577637 C317.59763847 15.04420413 310.31755004 15.05360817 303.0374012 15.07048988 C292.51157076 15.09488201 281.98577932 15.10268537 271.45992368 15.10645386 C254.3820026 15.113018 237.30412453 15.13297818 220.22622681 15.16136169 C203.63768733 15.18890321 187.04915954 15.21013634 170.46060181 15.22288513 C168.92655118 15.22406739 168.92655118 15.22406739 167.36150963 15.22527353 C162.2308677 15.22918867 157.10022569 15.23297979 151.96958363 15.23670924 C109.41293034 15.267804 66.85632396 15.32063881 24.29971313 15.38768005 Z "
        fill="#010201" transform="translate(77.70028686523438,-0.3876800537109375)" />
    <path
        d="M0 0 C4.2075 -0.12375 8.415 -0.2475 12.75 -0.375 C14.7005127 -0.45693604 14.7005127 -0.45693604 16.69042969 -0.54052734 C25.32765853 -0.66190273 31.82447038 1.08882716 39 6 C45.02619475 12.16723335 47.30898581 18.137032 47.24609566 26.73676014 C47.24840335 27.51242776 47.25071103 28.28809538 47.25308865 29.08726808 C47.25839772 31.69586327 47.24939703 34.30421337 47.24050903 36.91279602 C47.24138091 38.79802085 47.24313157 40.68324545 47.24568737 42.56846875 C47.25016832 47.75632056 47.24214691 52.9440901 47.23213124 58.13193142 C47.22350983 63.72357949 47.22641598 69.31522277 47.22793579 74.90687561 C47.22898547 84.59725866 47.22270018 94.28761482 47.21146011 103.9779911 C47.19521934 117.98871764 47.18999856 131.99943114 47.18748413 146.01016607 C47.18310479 168.74059119 47.16980637 191.47099953 47.15087891 214.20141602 C47.13251175 236.28442307 47.11834368 258.36742629 47.10986328 280.45043945 C47.1094687 281.47138725 47.1094687 281.47138725 47.10906615 282.51296026 C47.10642913 289.34811249 47.1038775 296.18326476 47.10138843 303.01841706 C47.0805044 360.34562136 47.04521012 417.67281002 47 475 C41.20758174 476.65927779 35.40839323 478.22914284 29.5625 479.6875 C28.65951172 479.92533203 27.75652344 480.16316406 26.82617188 480.40820312 C18.51029908 482.46157939 12.32625511 481.43233195 4 479.4375 C2.2984375 479.03337891 2.2984375 479.03337891 0.5625 478.62109375 C-0.7059375 478.31365234 -0.7059375 478.31365234 -2 478 C-1.34 477.67 -0.68 477.34 0 477 C0 433.11 0 389.22 0 344 C-16.5 344 -33 344 -50 344 C-54 340 -54 340 -54.5 336.5 C-54 333 -54 333 -52.1875 330.625 C-48.93713653 328.21044428 -46.365825 327.87571007 -42.43676758 327.88647461 C-41.50320435 327.88659546 -40.56964111 327.88671631 -39.60778809 327.88684082 C-38.62991333 327.89195679 -37.65203857 327.89707275 -36.64453125 327.90234375 C-35.74327515 327.90335083 -34.84201904 327.90435791 -33.91345215 327.90539551 C-30.54645516 327.91062794 -27.1794763 327.9245892 -23.8125 327.9375 C-16.284375 327.958125 -8.75625 327.97875 -1 328 C-1 312.82 -1 297.64 -1 282 C-4.40699219 282.05800781 -7.81398438 282.11601562 -11.32421875 282.17578125 C-14.62717359 282.21478474 -17.93010269 282.24513926 -21.2331543 282.2746582 C-23.52721658 282.29978928 -25.8211989 282.33389969 -28.11499023 282.37719727 C-31.41410049 282.43790832 -34.71215146 282.46622437 -38.01171875 282.48828125 C-39.54792122 282.52699089 -39.54792122 282.52699089 -41.11515808 282.56648254 C-48.22355972 282.56927712 -48.22355972 282.56927712 -52.14770508 279.69213867 C-54.58787859 276.14557306 -54.76669374 274.21681555 -54 270 C-51.8173185 267.39967888 -50.04589739 266.15337598 -46.65341187 265.65588379 C-43.69161891 265.53608108 -40.7566284 265.55088106 -37.79296875 265.609375 C-36.71243729 265.61503479 -35.63190582 265.62069458 -34.51863098 265.62652588 C-31.07446611 265.64887957 -27.63134935 265.69907609 -24.1875 265.75 C-21.84962442 265.77006621 -19.5117325 265.78831677 -17.17382812 265.8046875 C-11.44849213 265.84533596 -5.72541634 265.92363283 0 266 C0 250.82 0 235.64 0 220 C-3.32320313 220.03480469 -6.64640625 220.06960937 -10.0703125 220.10546875 C-13.29719179 220.12888063 -16.52406152 220.14708797 -19.75097656 220.16479492 C-21.98962658 220.17985964 -24.22824719 220.20031533 -26.46679688 220.22631836 C-29.68887602 220.26280283 -32.91056411 220.27974983 -36.1328125 220.29296875 C-37.62846237 220.31619453 -37.62846237 220.31619453 -39.15432739 220.33988953 C-44.51167423 220.34118023 -48.4044509 220.0980648 -53 217 C-54.54586876 213.90826248 -54.29359521 211.40570448 -54 208 C-52.01910658 205.44504973 -50.82638641 204.16707502 -47.62078857 203.51898193 C-46.74142639 203.52786438 -45.86206421 203.53674683 -44.95605469 203.54589844 C-43.94140137 203.54638184 -42.92674805 203.54686523 -41.88134766 203.54736328 C-40.29265869 203.57805908 -40.29265869 203.57805908 -38.671875 203.609375 C-37.20355225 203.61541748 -37.20355225 203.61541748 -35.70556641 203.62158203 C-32.05351991 203.64248962 -28.40174088 203.6983352 -24.75 203.75 C-16.5825 203.8325 -8.415 203.915 0 204 C0 174.96 0 145.92 0 116 C-2.97 117.65 -5.94 119.3 -9 121 C-13.0625 121.8125 -13.0625 121.8125 -16 122 C-15.979375 122.804375 -15.95875 123.60875 -15.9375 124.4375 C-16 127 -16 127 -17 128 C-18.66617115 128.04063832 -20.33388095 128.042721 -22 128 C-22.33 126.35 -22.66 124.7 -23 123 C-23.60585938 122.99742187 -24.21171875 122.99484375 -24.8359375 122.9921875 C-32.07663259 122.65800157 -37.26431178 120.4341282 -43 116 C-45.48038907 112.2794164 -45.46337203 110.40203429 -45 106 C-43.3125 103.5 -43.3125 103.5 -41 102 C-37.05428861 102.36582755 -34.61262876 103.70286337 -31.4375 106 C-28.3825108 108.20255721 -26.77261421 109.05684645 -23 110 C-23.33 103.07 -23.66 96.14 -24 89 C-28.42070921 86.90749421 -28.42070921 86.90749421 -32.85449219 84.84301758 C-37.95375821 82.36179653 -40.90422787 79.4654873 -43.25 74.1875 C-44.79618663 67.6162068 -44.60064276 62.77172525 -41.3359375 56.890625 C-38.05648396 52.24952701 -33.55426935 48.46164983 -28 47 C-25.1875 46.875 -25.1875 46.875 -23 47 C-22.67 45.35 -22.34 43.7 -22 42 C-20.34385343 41.61781233 -18.67542976 41.28604898 -17 41 C-16 42 -16 42 -15.9375 44.5625 C-15.958125 45.366875 -15.97875 46.17125 -16 47 C-14.845 46.95875 -13.69 46.9175 -12.5 46.875 C-7.84326154 46.70868791 -4.9410486 47.76473785 0 49 C0 32.83 0 16.66 0 0 Z "
        fill="#DCD0C2" transform="translate(418,15)" />
    <path
        d="M0 0 C6.05332806 3.51681205 9.43869161 7.57739236 11.9296875 14.12109375 C12.63406258 19.00901215 12.58501131 23.86752842 12.53096008 28.79444885 C12.53314298 30.27889955 12.53752551 31.76334835 12.54390591 33.24778694 C12.5550463 37.30946554 12.53514198 41.37048055 12.51001561 45.43207467 C12.48837166 49.81845966 12.49573381 54.20480891 12.49952698 58.5912323 C12.50214548 66.18517953 12.48649215 73.77891154 12.45833778 81.37280464 C12.41765826 92.35218704 12.40467601 103.33146564 12.39839783 114.31091522 C12.38746163 132.1253859 12.35420574 149.93974194 12.30688477 167.75415039 C12.26097172 185.05655342 12.22558834 202.35892528 12.2043457 219.66137695 C12.20303209 220.72835686 12.20171847 221.79533676 12.20036504 222.89464939 C12.19383974 228.247511 12.18752122 233.60037282 12.18130553 238.95323479 C12.12949354 283.34260127 12.04107426 327.73183979 11.9296875 372.12109375 C5.3296875 372.12109375 -1.2703125 372.12109375 -8.0703125 372.12109375 C-8.7303125 370.47109375 -9.3903125 368.82109375 -10.0703125 367.12109375 C-13.34551312 364.93762667 -14.51043465 364.88444127 -18.3203125 364.74609375 C-25.25400396 364.19725274 -28.84686883 362.4643155 -33.72678375 357.32151699 C-37.42207001 351.93341573 -36.75311403 345.8382175 -36.69177246 339.5393219 C-36.69610428 338.1489161 -36.70262283 336.7585157 -36.71113253 335.36812919 C-36.72810332 331.55682821 -36.71395776 327.74618549 -36.69461775 323.93491924 C-36.679179 319.82098747 -36.6925957 315.70713576 -36.70236206 311.59320068 C-36.71688571 303.53747457 -36.70465731 295.48200056 -36.68324882 287.42629833 C-36.65922993 278.04365714 -36.66095377 268.66107362 -36.66355473 259.27840852 C-36.66724475 242.53573238 -36.6464213 225.79317496 -36.61230469 209.05053711 C-36.57921877 192.80766804 -36.56504554 176.56492357 -36.57128906 160.32202148 C-36.57805524 142.63239944 -36.57558595 124.94282959 -36.55592966 107.25321525 C-36.55489018 106.31749583 -36.55385069 105.38177641 -36.5527797 104.41770185 C-36.55068882 102.53840253 -36.54857785 100.65910323 -36.54644653 98.77980395 C-36.53955454 92.24119935 -36.53888104 85.70261084 -36.54032898 79.16400337 C-36.54176968 71.19372143 -36.53205979 63.22354102 -36.50838262 55.25329275 C-36.49653377 51.18750139 -36.48939004 47.12185142 -36.49522018 43.05604362 C-36.50040224 39.33212015 -36.4916679 35.60849505 -36.47194558 31.88462257 C-36.46498087 29.9035748 -36.47264132 27.92249216 -36.48086691 25.94144922 C-36.42211784 18.2511855 -35.98784265 12.05975945 -31.2734375 5.6953125 C-22.07641905 -3.18900733 -11.77100853 -6.0530631 0 0 Z "
        fill="#4DAC4D" transform="translate(83.0703125,17.87890625)" />
    <path
        d="M0 0 C2.04823297 -0.00433641 4.09424344 -0.0405529 6.14208984 -0.07861328 C13.63814389 -0.10072554 20.05969286 0.12867316 26.45068359 4.37060547 C30.40519309 8.42651265 32.73377827 12.35078508 32.82568359 18.05810547 C32.68887421 24.67381642 30.55666683 29.97212457 26.20068359 34.93310547 C25.62318359 35.40748047 25.04568359 35.88185547 24.45068359 36.37060547 C25.35818359 36.86560547 26.26568359 37.36060547 27.20068359 37.87060547 C31.20424379 40.61238011 33.13777729 43.71642637 34.45068359 48.37060547 C35.47783715 56.5773528 34.79489653 64.20599583 30.45068359 71.37060547 C27.41759905 74.89396944 23.85412072 76.96132036 19.45068359 78.37060547 C16.86682229 78.55816234 14.39519316 78.6513808 11.81396484 78.63623047 C11.09331345 78.63814392 10.37266205 78.64005737 9.63017273 78.64202881 C8.11485442 78.64338424 6.59952424 78.63973282 5.08422852 78.63134766 C2.76015406 78.62059145 0.4368443 78.63128828 -1.88720703 78.64404297 C-3.36181811 78.64272218 -4.83642872 78.64016146 -6.31103516 78.63623047 C-7.00686203 78.64027893 -7.7026889 78.64432739 -8.41960144 78.64849854 C-13.31935921 78.60056267 -13.31935921 78.60056267 -15.54931641 76.37060547 C-15.81001282 73.33422852 -15.81001282 73.33422852 -15.82397461 69.38232422 C-15.82908554 68.66348053 -15.83419647 67.94463684 -15.83946228 67.20401001 C-15.85339093 64.82195774 -15.85239927 62.44019368 -15.85009766 60.05810547 C-15.85398247 58.4066558 -15.85831669 56.75520713 -15.86308289 55.10375977 C-15.87055189 51.64026655 -15.87024868 48.17687525 -15.86499023 44.71337891 C-15.85919109 40.26757419 -15.87613379 35.82218548 -15.89933491 31.37644958 C-15.91404137 27.96559191 -15.91494825 24.55483517 -15.91182518 21.14395142 C-15.91233983 19.504437 -15.91760447 17.86491715 -15.9276371 16.22543335 C-15.93992651 13.93630648 -15.93325618 11.64799972 -15.92163086 9.35888672 C-15.92226028 8.0547583 -15.92288971 6.75062988 -15.92353821 5.40698242 C-15.80004501 4.40497803 -15.67655182 3.40297363 -15.54931641 2.37060547 C-10.77939416 -0.80934269 -5.61305457 -0.00132979 0 0 Z "
        fill="#020202" transform="translate(159.54931640625,59.62939453125)" />
    <path
        d="M0 0 C0.81730591 -0.00623996 1.63461182 -0.01247993 2.47668457 -0.01890898 C5.21912364 -0.03488145 7.96067912 -0.02221833 10.703125 -0.00964355 C12.66764851 -0.01506279 14.63216796 -0.02218433 16.59667969 -0.03088379 C21.93548516 -0.04914366 27.27398199 -0.04203856 32.61279297 -0.02936745 C38.19499556 -0.01925361 43.77717139 -0.02862863 49.359375 -0.03491211 C58.73442336 -0.04219322 68.10934576 -0.03258861 77.484375 -0.0135498 C88.32944839 0.00821976 99.17422101 0.00116873 110.01928711 -0.02085543 C119.32383808 -0.03899618 128.6282984 -0.04157422 137.93286133 -0.03110075 C143.49305147 -0.02485855 149.05310015 -0.02405019 154.61328125 -0.0372467 C159.84019072 -0.04878526 165.06671169 -0.04081586 170.2935791 -0.01766968 C172.21406407 -0.01237193 174.13458162 -0.01391451 176.05505371 -0.02272034 C178.67256338 -0.03361744 181.2888206 -0.01998354 183.90625 0 C184.67005981 -0.00892289 185.43386963 -0.01784577 186.2208252 -0.02703905 C189.68641268 0.02444303 191.61149841 0.25302959 194.42480469 2.35218048 C196.51309652 5.29779576 196.54229199 6.97293262 195.953125 10.50793457 C194.0860259 12.81069013 192.59664759 14.18617328 189.953125 15.50793457 C187.38256646 15.61438063 184.83857824 15.66014468 182.26737976 15.66183472 C181.46473893 15.66621697 180.66209809 15.67059922 179.8351348 15.67511427 C177.13056607 15.68852853 174.42602994 15.69468699 171.72143555 15.70080566 C169.7883896 15.7087045 167.85534514 15.71697331 165.92230225 15.72558594 C159.56149712 15.75182904 153.20068533 15.76711479 146.83984375 15.78137207 C144.65263171 15.78673061 142.46541972 15.79210811 140.27820778 15.79750443 C131.18250824 15.81913555 122.08681049 15.83787369 112.99109173 15.84912682 C99.94226848 15.86537527 86.89374258 15.89857227 73.84503144 15.95552766 C64.67726052 15.99418361 55.50956927 16.0137543 46.34171897 16.01904738 C40.86242485 16.02270649 35.38344769 16.03478734 29.90424156 16.06715012 C24.75040091 16.09715458 19.59707029 16.10356979 14.44316101 16.09176636 C12.55048538 16.09154499 10.6577866 16.09990202 8.76519203 16.1174202 C6.18278338 16.1400243 3.60223793 16.13185866 1.01982117 16.11593628 C0.2692328 16.12981837 -0.48135557 16.14370045 -1.25468904 16.15800321 C-5.18044407 16.09828265 -6.89724992 15.62619252 -10.01588726 13.16134071 C-12.046875 10.50793457 -12.046875 10.50793457 -12.609375 7.44543457 C-11.248295 0.33757236 -6.34644146 -0.07413963 0 0 Z "
        fill="#070706" transform="translate(147.046875,281.4920654296875)" />
    <path
        d="M0 0 C0.80928766 -0.00779995 1.61857533 -0.01559991 2.45238686 -0.02363622 C5.16191875 -0.0435668 7.87004774 -0.02778808 10.57958984 -0.01205444 C12.52293721 -0.01883011 14.46627816 -0.02773295 16.40960693 -0.03860474 C21.68649774 -0.06141066 26.96290009 -0.05255627 32.2397995 -0.03670931 C37.76014022 -0.0240571 43.2804389 -0.03578854 48.80078125 -0.04364014 C58.07152827 -0.05273866 67.34207618 -0.04074338 76.61279297 -0.01693726 C87.3335268 0.0102743 98.05378521 0.00146029 108.77450752 -0.02606928 C117.97635024 -0.04875349 127.17804978 -0.05196377 136.37991142 -0.03887594 C141.87699045 -0.03107768 147.37384595 -0.03005025 152.87091064 -0.04655838 C158.03882368 -0.06099375 163.20612332 -0.05099818 168.37397003 -0.0220871 C170.27145621 -0.01547133 172.16899394 -0.01738231 174.06645966 -0.02840042 C176.65535664 -0.04204838 179.24228355 -0.0249507 181.83105469 0 C182.58348764 -0.01115361 183.3359206 -0.02230722 184.11115456 -0.03379881 C188.03756248 0.03969612 189.76705918 0.51753445 192.88565063 2.98319435 C194.91552734 5.63491821 194.91552734 5.63491821 195.47802734 8.69741821 C194.76812441 12.40468907 193.92733715 13.37932914 190.91552734 15.63491821 C188.10237181 16.02777322 185.68064472 16.1757027 182.86865234 16.14285278 C181.64269348 16.15221273 181.64269348 16.15221273 180.39196777 16.16176176 C177.6495287 16.17773423 174.90797322 16.16507111 172.16552734 16.15249634 C170.20100383 16.15791557 168.23648438 16.16503711 166.27197266 16.17373657 C160.93316718 16.19199644 155.59467035 16.18489134 150.25585938 16.17222023 C144.67365678 16.16210639 139.09148095 16.17148141 133.50927734 16.17776489 C124.13422898 16.185046 114.75930659 16.17544139 105.38427734 16.15640259 C94.53920395 16.13463302 83.69443133 16.14168406 72.84936523 16.16370821 C63.54481427 16.18184896 54.24035395 16.18442701 44.93579102 16.17395353 C39.37560088 16.16771133 33.81555219 16.16690298 28.25537109 16.18009949 C23.02846163 16.19163804 17.80194065 16.18366864 12.57507324 16.16052246 C10.65458827 16.15522471 8.73407072 16.15676729 6.81359863 16.16557312 C4.19608896 16.17647022 1.57983175 16.16283632 -1.03759766 16.14285278 C-1.80140747 16.15177567 -2.56521729 16.16069856 -3.35217285 16.16989183 C-6.8194026 16.11838536 -8.7410154 15.89213845 -11.55224609 13.78676605 C-13.08447266 11.63491821 -13.08447266 11.63491821 -13.64697266 8.69741821 C-12.26622703 1.18002536 -6.77254307 -0.10039206 0 0 Z "
        fill="#040404" transform="translate(148.08447265625,405.3650817871094)" />
    <path
        d="M0 0 C1.21877519 -0.00935994 1.21877519 -0.00935994 2.46217209 -0.01890898 C5.1884594 -0.03488097 7.91385782 -0.02221849 10.64015198 -0.00964355 C12.59320091 -0.01506285 14.54624576 -0.02218443 16.49928284 -0.03088379 C21.80716529 -0.0491441 27.11473731 -0.04203806 32.4226253 -0.02936745 C37.97366353 -0.0192524 43.52467486 -0.0286291 49.07571411 -0.03491211 C58.39948812 -0.04219347 67.72313547 -0.03258858 77.04689026 -0.0135498 C87.82946028 0.00821344 98.61172772 0.00117343 109.39429039 -0.02085543 C118.64705288 -0.03900306 127.89972424 -0.04157065 137.15249878 -0.03110075 C142.68086301 -0.02486152 148.20908499 -0.02404192 153.73744011 -0.0372467 C158.93562619 -0.04879503 164.13342197 -0.04079788 169.33156586 -0.01766968 C171.24034286 -0.0123769 173.14915266 -0.01390607 175.05791664 -0.02272034 C177.66193982 -0.03363716 180.26470924 -0.01995943 182.86865234 0 C183.62565837 -0.00892289 184.38266439 -0.01784577 185.16260999 -0.02703905 C188.78775957 0.02692805 190.86161097 0.4231483 193.96682835 2.35608673 C195.99781799 4.50793457 195.99781799 4.50793457 196.62281799 7.44543457 C195.77668694 11.59147674 194.29925616 12.89427267 190.99781799 15.50793457 C188.10467472 16.00079401 185.8009472 16.18565684 182.91334534 16.14285278 C181.69941384 16.15455271 181.69941384 16.15455271 180.46095848 16.16648901 C177.75142659 16.18641958 175.04329759 16.17064087 172.33375549 16.15490723 C170.39040812 16.16168289 168.44706717 16.17058573 166.5037384 16.18145752 C161.2268476 16.20426344 155.95044525 16.19540905 150.67354584 16.17956209 C145.15320512 16.16690988 139.63290643 16.17864132 134.11256409 16.18649292 C124.84181707 16.19559144 115.57126916 16.18359617 106.30055237 16.15979004 C95.57981854 16.13257848 84.85956012 16.14139249 74.13883781 16.16892207 C64.93699509 16.19160627 55.73529556 16.19481655 46.53343391 16.18172872 C41.03635489 16.17393046 35.53949939 16.17290303 30.04243469 16.18941116 C24.87452166 16.20384654 19.70722202 16.19385097 14.53937531 16.16493988 C12.64188913 16.15832412 10.7443514 16.16023509 8.84688568 16.1712532 C6.2579887 16.18490117 3.67106178 16.16780348 1.08229065 16.14285278 C-0.04635879 16.1595832 -0.04635879 16.1595832 -1.19780922 16.1766516 C-5.12421714 16.10315667 -6.85371384 15.62531834 -9.9723053 13.15965843 C-12.00218201 10.50793457 -12.00218201 10.50793457 -12.56468201 7.44543457 C-11.2077403 0.35918343 -6.33294891 -0.07442762 0 0 Z "
        fill="#010101" transform="translate(147.00218200683594,343.4920654296875)" />
    <path
        d="M0 0 C0.80928766 -0.00623996 1.61857533 -0.01247993 2.45238686 -0.01890898 C5.16175167 -0.03485246 7.8702185 -0.02222967 10.57958984 -0.00964355 C12.52293421 -0.01506408 14.46627447 -0.02218634 16.40960693 -0.03088379 C21.68644016 -0.04912833 26.96296077 -0.04204487 32.2397995 -0.02936745 C37.76013537 -0.01924569 43.28044434 -0.02863084 48.80078125 -0.03491211 C58.07150075 -0.0421909 67.34209281 -0.03259467 76.61279297 -0.0135498 C87.33346837 0.00821932 98.0538395 0.00116812 108.77450752 -0.02085543 C117.97633533 -0.03900276 127.1780715 -0.04157099 136.37991142 -0.03110075 C141.87696191 -0.02486218 147.37386933 -0.02404026 152.87091064 -0.0372467 C158.03874212 -0.04879482 163.206181 -0.04079829 168.37397003 -0.01766968 C170.27145994 -0.01237706 172.16898284 -0.01390579 174.06645966 -0.02272034 C176.65510521 -0.03363765 179.24248968 -0.01995897 181.83105469 0 C182.58348764 -0.00892289 183.3359206 -0.01784577 184.11115456 -0.02703905 C187.72621539 0.02709463 189.78595564 0.42720271 192.88174438 2.35608673 C194.91552734 4.50793457 194.91552734 4.50793457 195.54052734 7.44543457 C194.69410236 11.592917 193.21962072 12.89463158 189.91552734 15.50793457 C187.00841233 16.00071783 184.68806049 16.18560596 181.78636169 16.14285278 C180.97228491 16.15065274 180.15820813 16.15845269 179.31946236 16.16648901 C176.59377975 16.18642038 173.8694916 16.17064057 171.14379883 16.15490723 C169.1889769 16.1616828 167.23416135 16.17058559 165.27935791 16.18145752 C159.97154443 16.204263 154.66421656 16.19540962 149.35639453 16.17956209 C143.80488947 16.16691145 138.25342624 16.17864072 132.70191956 16.18649292 C123.37989834 16.19559114 114.05807514 16.18359616 104.73608398 16.15979004 C93.95284715 16.13257057 83.17008286 16.14139836 72.38685745 16.16892207 C63.13322634 16.19159762 53.87973764 16.19482104 44.62608773 16.18172872 C39.09718296 16.17392672 33.56850047 16.17291344 28.03960991 16.18941116 C22.84297387 16.20383425 17.64694837 16.19387357 12.45037842 16.16493988 C10.54118426 16.15831787 8.63193888 16.16024571 6.72276497 16.1712532 C4.12038171 16.18487636 1.51996646 16.16783379 -1.08229065 16.14285278 C-1.8415274 16.15400639 -2.60076414 16.16516 -3.38300806 16.1766516 C-7.17028082 16.10591256 -8.76365442 15.81356373 -11.54945278 13.15965843 C-13.43796701 9.89727836 -13.79421513 8.21436749 -13.08447266 4.50793457 C-9.10786909 0.29238504 -5.52785468 -0.06555324 0 0 Z "
        fill="#020202" transform="translate(148.08447265625,218.4920654296875)" />
    <path
        d="M0 0 C1.67542976 0.28604898 3.34385343 0.61781233 5 1 C5 2.65 5 4.3 5 6 C6.7015625 5.87625 6.7015625 5.87625 8.4375 5.75 C13.53983905 5.72266604 17.57689358 7.59003611 22 10 C23 11 23 11 23.25 14.375 C23 18 23 18 21.9375 20 C18.75596432 21.64208293 16.42476037 20.78601058 13 20 C10.36 19.01 7.72 18.02 5 17 C5.33 23.27 5.66 29.54 6 36 C7.85625 36.845625 9.7125 37.69125 11.625 38.5625 C16.95372667 41.21742639 20.86559602 43.88336425 24 49 C26.11171508 55.33514524 26.31780824 63.56899211 23.90625 69.84765625 C20.76954706 74.84469099 17.41403708 77.72040544 12 80 C9.63183902 80.53653647 7.43092912 80.80155681 5 81 C5.020625 81.804375 5.04125 82.60875 5.0625 83.4375 C5 86 5 86 4 87 C2.33382885 87.04063832 0.66611905 87.042721 -1 87 C-1.33 85.35 -1.66 83.7 -2 82 C-2.60585938 81.99742187 -3.21171875 81.99484375 -3.8359375 81.9921875 C-11.07663259 81.65800157 -16.26431178 79.4341282 -22 75 C-24.48038907 71.2794164 -24.46337203 69.40203429 -24 65 C-22.3125 62.5 -22.3125 62.5 -20 61 C-16.05428861 61.36582755 -13.61262876 62.70286337 -10.4375 65 C-7.3825108 67.20255721 -5.77261421 68.05684645 -2 69 C-2.33 62.07 -2.66 55.14 -3 48 C-7.42070921 45.90749421 -7.42070921 45.90749421 -11.85449219 43.84301758 C-16.95375821 41.36179653 -19.90422787 38.4654873 -22.25 33.1875 C-23.79618663 26.6162068 -23.60064276 21.77172525 -20.3359375 15.890625 C-17.05648396 11.24952701 -12.55426935 7.46164983 -7 6 C-4.1875 5.875 -4.1875 5.875 -2 6 C-1.855625 5.195625 -1.71125 4.39125 -1.5625 3.5625 C-1 1 -1 1 0 0 Z "
        fill="#040403" transform="translate(397,56)" />
    <path
        d="M0 0 C2.1942749 1.13679504 2.1942749 1.13679504 4 3 C4.48101807 5.75248718 4.48101807 5.75248718 4.45410156 9.1237793 C4.45379944 10.38486008 4.45349731 11.64594086 4.45318604 12.94523621 C4.43275946 14.32157013 4.41189548 15.69789761 4.390625 17.07421875 C4.38316348 18.48239845 4.37747013 19.89058855 4.37347412 21.29878235 C4.35821038 25.00294729 4.31892336 28.70648362 4.2746582 32.41040039 C4.23372076 36.19083146 4.21546644 39.97136423 4.1953125 43.75195312 C4.15242883 51.16825516 4.0841698 58.58403946 4 66 C5.25659424 65.97643433 5.25659424 65.97643433 6.53857422 65.95239258 C9.64336877 65.90129993 12.74794931 65.86366766 15.85302734 65.83520508 C17.85919374 65.81267749 19.86516526 65.7745643 21.87109375 65.73632812 C23.12792969 65.72666016 24.38476562 65.71699219 25.6796875 65.70703125 C27.42354736 65.68346558 27.42354736 65.68346558 29.20263672 65.65942383 C30.1257666 65.77181396 31.04889648 65.8842041 32 66 C34.31282587 69.46923881 34.42478586 70.92205575 34 75 C32.71679688 76.66423035 32.71679688 76.66423035 31 78 C28.09330547 78.28620281 25.40547601 78.39646792 22.5 78.36328125 C21.25186523 78.36402901 21.25186523 78.36402901 19.97851562 78.36479187 C18.22002778 78.36245236 16.46153653 78.35273102 14.703125 78.33618164 C12.01011235 78.31258859 9.31808973 78.31562149 6.625 78.32226562 C4.91666076 78.31668877 3.20832569 78.30957885 1.5 78.30078125 C0.69369141 78.30169266 -0.11261719 78.30260406 -0.94335938 78.30354309 C-4.80831979 78.25447945 -6.71103717 78.19264189 -10 76 C-10.38095093 72.96362305 -10.38095093 72.96362305 -10.38818359 69.01171875 C-10.39344055 68.29287506 -10.39869751 67.57403137 -10.40411377 66.83340454 C-10.41734515 64.45121697 -10.40856507 62.06969466 -10.3984375 59.6875 C-10.40045735 58.03605012 -10.40336803 56.38460111 -10.40713501 54.7331543 C-10.4115626 51.26960775 -10.40511349 47.80629307 -10.39111328 44.34277344 C-10.37402098 39.8969426 -10.38385986 35.45165501 -10.40183067 31.00584412 C-10.41265689 27.59496954 -10.40922757 24.18422436 -10.4014473 20.77334595 C-10.39944206 19.13383928 -10.40191588 17.49432096 -10.40888596 15.85482788 C-10.41648159 13.56566121 -10.40492396 11.27738163 -10.38818359 8.98828125 C-10.38579681 7.68415283 -10.38341003 6.38002441 -10.38095093 5.03637695 C-10.25523712 4.03437256 -10.12952332 3.03236816 -10 2 C-6.28986601 -0.47342266 -4.38939738 -0.38503486 0 0 Z "
        fill="#040404" transform="translate(292,60)" />
    <path
        d="M0 0 C1.0209375 0.00580078 1.0209375 0.00580078 2.0625 0.01171875 C4 0.3125 4 0.3125 7 2.3125 C7.36076355 4.98269653 7.36076355 4.98269653 7.34057617 8.41455078 C7.34034958 9.69572784 7.34012299 10.97690491 7.33988953 12.29690552 C7.32456841 13.7005447 7.3089204 15.10418034 7.29296875 16.5078125 C7.28737438 17.93984535 7.28310353 19.37188393 7.28010559 20.80392456 C7.26864413 24.57537656 7.23916624 28.34648265 7.20599365 32.11779785 C7.1753205 35.96520304 7.16160618 39.81266406 7.14648438 43.66015625 C7.11429738 51.2110953 7.06308584 58.76174921 7 66.3125 C7.83772949 66.30202637 8.67545898 66.29155273 9.53857422 66.28076172 C12.64338164 66.24669981 15.74809392 66.22161089 18.85302734 66.20263672 C20.8591136 66.18761893 22.86511324 66.16221019 24.87109375 66.13671875 C26.12792969 66.13027344 27.38476562 66.12382813 28.6796875 66.1171875 C29.84226074 66.10671387 31.00483398 66.09624023 32.20263672 66.08544922 C35 66.3125 35 66.3125 37 68.3125 C37.31537716 72.64893601 37.44897847 74.63903229 35 78.3125 C32.0555951 78.61651999 29.32533876 78.73240857 26.37890625 78.7109375 C25.095355 78.71524277 25.095355 78.71524277 23.78587341 78.71963501 C21.97434834 78.72167837 20.16280134 78.71612951 18.35131836 78.70361328 C15.57680886 78.68758267 12.80376047 78.70344217 10.02929688 78.72265625 C8.27083011 78.72067348 6.51236426 78.7168291 4.75390625 78.7109375 C3.92258682 78.71701019 3.0912674 78.72308289 2.23475647 78.7293396 C-3.45370577 78.65985124 -3.45370577 78.65985124 -5.71879578 77.21963501 C-7.665754 74.32149269 -7.38163912 71.87425328 -7.38818359 68.41015625 C-7.39344055 67.71227997 -7.39869751 67.01440369 -7.40411377 66.29537964 C-7.41731846 63.9883588 -7.40857455 61.68202787 -7.3984375 59.375 C-7.40045811 57.77221545 -7.40336945 56.16943179 -7.40713501 54.56665039 C-7.41155898 51.2074305 -7.40512513 47.8484499 -7.39111328 44.48925781 C-7.37402116 40.18143161 -7.38386198 35.8741661 -7.40183067 31.56636047 C-7.41266666 28.25667082 -7.40922307 24.9471143 -7.4014473 21.63742065 C-7.39944477 20.04898004 -7.40190643 18.46052737 -7.40888596 16.87210083 C-7.41649763 14.65268904 -7.40490145 12.43418766 -7.38818359 10.21484375 C-7.38579681 8.95148193 -7.38341003 7.68812012 -7.38095093 6.38647461 C-7 3.3125 -7 3.3125 -5.59683228 1.40380859 C-3.59729803 0.03728505 -2.40672951 -0.0592566 0 0 Z "
        fill="#030303" transform="translate(237,59.6875)" />
    <path
        d="M0 0 C0.99 0.66 1.98 1.32 3 2 C3.36076355 5.04983521 3.36076355 5.04983521 3.34057617 9.02001953 C3.34101425 9.74207581 3.34145233 10.46413208 3.34190369 11.20806885 C3.33980999 13.59992308 3.31645257 15.9910804 3.29296875 18.3828125 C3.28737484 20.03904843 3.28310377 21.69528932 3.28010559 23.35153198 C3.26864063 27.7147996 3.23915948 32.07776852 3.20599365 36.44091797 C3.17532818 40.89156045 3.16160781 45.34225111 3.14648438 49.79296875 C3.11429116 58.52878304 3.06307515 67.26435439 3 76 C-0.53882835 77.92610096 -2.9374976 78.34574488 -7 78 C-7.99 77.34 -8.98 76.68 -10 76 C-10.38095093 72.96362305 -10.38095093 72.96362305 -10.38818359 69.01171875 C-10.39344055 68.29287506 -10.39869751 67.57403137 -10.40411377 66.83340454 C-10.41734515 64.45121697 -10.40856507 62.06969466 -10.3984375 59.6875 C-10.40045735 58.03605012 -10.40336803 56.38460111 -10.40713501 54.7331543 C-10.4115626 51.26960775 -10.40511349 47.80629307 -10.39111328 44.34277344 C-10.37402098 39.8969426 -10.38385986 35.45165501 -10.40183067 31.00584412 C-10.41265689 27.59496954 -10.40922757 24.18422436 -10.4014473 20.77334595 C-10.39944206 19.13383928 -10.40191588 17.49432096 -10.40888596 15.85482788 C-10.41648159 13.56566121 -10.40492396 11.27738163 -10.38818359 8.98828125 C-10.38579681 7.68415283 -10.38341003 6.38002441 -10.38095093 5.03637695 C-10.25523712 4.03437256 -10.12952332 3.03236816 -10 2 C-6.31282562 -0.45811625 -4.35654296 -0.31118164 0 0 Z "
        fill="#010101" transform="translate(214,60)" />
    <path
        d="M0 0 C1.59702003 -0.01891296 1.59702003 -0.01891296 3.2263031 -0.03820801 C4.9435836 -0.02606262 4.9435836 -0.02606262 6.69555664 -0.01367188 C7.87662491 -0.01749878 9.05769318 -0.02132568 10.27455139 -0.02526855 C12.77191012 -0.02799017 15.26929723 -0.0206117 17.76660156 -0.00390625 C21.58796873 0.01747883 25.40745154 -0.00369182 29.22875977 -0.02929688 C31.65519621 -0.02665327 34.08163148 -0.02152763 36.50805664 -0.01367188 C37.65088608 -0.0217688 38.79371552 -0.02986572 39.97117615 -0.03820801 C47.84566012 0.05477154 47.84566012 0.05477154 51.89306641 2.33203125 C53.66821289 4.51757812 53.66821289 4.51757812 54.23071289 8.01757812 C53.57678061 12.0864901 52.84756822 13.01582069 49.66821289 15.51757812 C47.12609863 16.0255127 47.12609863 16.0255127 44.22875977 16.03515625 C43.1408313 16.04776489 42.05290283 16.06037354 40.93200684 16.07336426 C39.76214233 16.06526733 38.59227783 16.05717041 37.38696289 16.04882812 C35.57850891 16.05456848 35.57850891 16.05456848 33.73352051 16.0604248 C31.18488734 16.06314638 28.63622636 16.05576818 26.08764648 16.0390625 C22.18287987 16.01765852 18.27995341 16.03885816 14.37524414 16.06445312 C11.89997966 16.0618099 9.42471632 16.05668502 6.94946289 16.04882812 C5.19466614 16.06097351 5.19466614 16.06097351 3.40441895 16.07336426 C2.31649048 16.06075562 1.22856201 16.04814697 0.10766602 16.03515625 C-1.32651672 16.03038269 -1.32651672 16.03038269 -2.78967285 16.0255127 C-6.09687533 15.36470744 -7.2896175 14.15758533 -9.33178711 11.51757812 C-9.83178711 8.01757812 -9.83178711 8.01757812 -9.33178711 4.51757812 C-6.47959295 0.84502669 -4.59764031 0.01564286 0 0 Z "
        fill="#030202" transform="translate(373.331787109375,218.482421875)" />
    <path
        d="M0 0 C1.59702003 -0.01891296 1.59702003 -0.01891296 3.2263031 -0.03820801 C4.9435836 -0.02606262 4.9435836 -0.02606262 6.69555664 -0.01367188 C7.87662491 -0.01749878 9.05769318 -0.02132568 10.27455139 -0.02526855 C12.77191012 -0.02799017 15.26929723 -0.0206117 17.76660156 -0.00390625 C21.58796873 0.01747883 25.40745154 -0.00369182 29.22875977 -0.02929688 C31.65519621 -0.02665327 34.08163148 -0.02152763 36.50805664 -0.01367188 C37.65088608 -0.0217688 38.79371552 -0.02986572 39.97117615 -0.03820801 C47.84667781 0.05478356 47.84667781 0.05478356 51.88916016 2.33203125 C53.66821289 4.51757812 53.66821289 4.51757812 54.29321289 8.01757812 C53.66821289 11.51757812 53.66821289 11.51757812 51.88916016 13.703125 C46.91585097 16.50473448 42.12324657 16.08861163 36.50805664 16.04882812 C34.73501915 16.05456848 34.73501915 16.05456848 32.92616272 16.0604248 C30.43058418 16.06314374 27.93497713 16.05578401 25.43945312 16.0390625 C21.61597343 16.01763563 17.7943689 16.03887675 13.97094727 16.06445312 C11.5458129 16.06181022 9.12067971 16.05668602 6.69555664 16.04882812 C4.97827614 16.06097351 4.97827614 16.06097351 3.2263031 16.07336426 C2.16162308 16.06075562 1.09694305 16.04814697 0 16.03515625 C-0.93534073 16.03197388 -1.87068146 16.0287915 -2.83436584 16.0255127 C-6.1085797 15.35959124 -7.30398891 14.12861818 -9.33178711 11.51757812 C-9.83178711 8.01757812 -9.83178711 8.01757812 -9.33178711 4.51757812 C-6.47959295 0.84502669 -4.59764031 0.01564286 0 0 Z "
        fill="#020201" transform="translate(373.331787109375,343.482421875)" />
    <path
        d="M0 0 C1.66203712 -0.01902626 1.66203712 -0.01902626 3.35765076 -0.03843689 C4.55455032 -0.03550125 5.75144989 -0.03256561 6.98461914 -0.02954102 C8.82848961 -0.03740379 8.82848961 -0.03740379 10.70960999 -0.04542542 C13.97808371 -0.05350148 17.24613937 -0.04636676 20.5145874 -0.03509521 C23.83349703 -0.03236759 27.15216116 -0.06754228 30.47094727 -0.09399414 C32.99633746 -0.0956063 35.5217302 -0.09502834 38.04711914 -0.09204102 C39.24199448 -0.10327499 40.43686981 -0.11450897 41.66795349 -0.12608337 C43.33471886 -0.11201195 43.33471886 -0.11201195 45.03515625 -0.09765625 C46.50051064 -0.097407 46.50051064 -0.097407 47.99546814 -0.09715271 C51.32728447 0.54840157 52.51651129 1.75998171 54.58227539 4.40405273 C55.08227539 7.40405273 55.08227539 7.40405273 54.58227539 10.40405273 C52.51693466 13.04636584 51.32358927 14.25849146 47.99546814 14.9119873 C46.53011375 14.91676086 46.53011375 14.91676086 45.03515625 14.92163086 C43.92397934 14.9342395 42.81280243 14.94684814 41.66795349 14.95983887 C40.47307816 14.95174194 39.27820282 14.94364502 38.04711914 14.93530273 C36.81691544 14.93912964 35.58671173 14.94295654 34.31922913 14.94689941 C31.71932151 14.94962096 29.11938662 14.94224301 26.51953125 14.92553711 C23.85004046 14.91119815 21.18377965 14.90729054 18.51464844 14.92553711 C14.67097277 14.95019581 10.82833753 14.94726904 6.98461914 14.93530273 C5.78771957 14.94339966 4.59082001 14.95149658 3.35765076 14.95983887 C1.69561363 14.9409259 1.69561363 14.9409259 0 14.92163086 C-0.97610733 14.91844849 -1.95221466 14.91526611 -2.957901 14.9119873 C-5.41772461 14.40405273 -5.41772461 14.40405273 -7.2328949 12.59436035 C-8.96006936 9.40145985 -8.80654091 6.96820215 -8.41772461 3.40405273 C-6.07115922 0.05780437 -3.93784975 0.02179693 0 0 Z "
        fill="#010101" transform="translate(372.417724609375,281.595947265625)" />
    <path
        d="M0 0 C2.35125 -0.061875 4.7025 -0.12375 7.125 -0.1875 C7.85348145 -0.21481201 8.58196289 -0.24212402 9.33251953 -0.27026367 C13.99081639 -0.32901355 17.11534724 0.435207 21 3 C23.98885565 7.15166693 23.49408558 12.10546475 23 17 C21.80340398 20.52680932 21.17670021 22.36406276 17.875 24.1484375 C14.27394707 25.21505372 10.90007498 25.21664849 7.1875 25.125 C4.815625 25.08375 2.44375 25.0425 0 25 C0 16.75 0 8.5 0 0 Z "
        fill="#E8DECD" transform="translate(157,101)" />
    <path
        d="M0 0 C15.26785714 -0.66964286 15.26785714 -0.66964286 18.9375 2 C21.2182594 5.31746821 21.82657736 7.11354045 21.53515625 11.06640625 C20.63221605 14.32885442 18.59110191 15.96413421 16 18 C11.53794887 20.23102556 4.78092876 19.04346299 0 19 C0 12.73 0 6.46 0 0 Z "
        fill="#E2D8C8" transform="translate(157,72)" />
    <path
        d="M0 0 C5.95102808 1.19020562 10.51260813 3.42158695 16 6 C16 12.6 16 19.2 16 26 C9.73517173 24.74703435 5.55223665 22.14403762 0 19 C0 12.73 0 6.46 0 0 Z "
        fill="#EAE0CF" transform="translate(402,73)" />
    <path
        d="M0 0 C6.47321429 2.58928571 6.47321429 2.58928571 8 5 C8.39189103 9.11485579 8.61831894 11.73081902 6.8125 15.4375 C5 17 5 17 0 18 C0 12.06 0 6.12 0 0 Z "
        fill="#DED4C4" transform="translate(401,107)" />
    <path
        d="M0 0 C0 5.28 0 10.56 0 16 C-7.39622642 12.30188679 -7.39622642 12.30188679 -9 9 C-8.92777005 5.46073241 -8.67194991 3.6951206 -6.1875 1.125 C-4 0 -4 0 0 0 Z "
        fill="#E3D9C9" transform="translate(396,74)" />
</svg>